<svg xmlns="http://www.w3.org/2000/svg" xmlns:xlink="http://www.w3.org/1999/xlink" width="500" zoomAndPan="magnify" viewBox="0 0 375 374.999991" height="500" preserveAspectRatio="xMidYMid meet" version="1.0"><defs><clipPath id="b806a0415a"><path d="M 37 60 L 338 60 L 338 315 L 37 315 Z M 37 60 " clip-rule="nonzero"/></clipPath><clipPath id="43fad76264"><path d="M 37.5 89.90625 L 61.675781 60.25 L 337.5 285.089844 L 313.324219 314.75 Z M 37.5 89.90625 " clip-rule="nonzero"/></clipPath><clipPath id="9002443be2"><path d="M 0.441406 0.238281 L 300.679688 0.238281 L 300.679688 254.878906 L 0.441406 254.878906 Z M 0.441406 0.238281 " clip-rule="nonzero"/></clipPath><clipPath id="38efdc8c29"><path d="M 0.5 29.90625 L 24.675781 0.25 L 300.5 225.089844 L 276.324219 254.75 Z M 0.5 29.90625 " clip-rule="nonzero"/></clipPath><clipPath id="e3495cb41d"><rect x="0" width="301" y="0" height="255"/></clipPath><clipPath id="8c205a5851"><path d="M 37.5 37.5 L 75.765625 37.5 L 75.765625 90.8125 L 37.5 90.8125 Z M 37.5 37.5 " clip-rule="nonzero"/></clipPath><clipPath id="5b796e2373"><path d="M 0.5 0.5 L 38.765625 0.5 L 38.765625 53.8125 L 0.5 53.8125 Z M 0.5 0.5 " clip-rule="nonzero"/></clipPath><clipPath id="bb6593a64c"><rect x="0" width="39" y="0" height="54"/></clipPath><clipPath id="db82434faa"><path d="M 299.234375 284.1875 L 337.5 284.1875 L 337.5 337.5 L 299.234375 337.5 Z M 299.234375 284.1875 " clip-rule="nonzero"/></clipPath><clipPath id="2971ad2b14"><path d="M 0.234375 0.1875 L 38.5 0.1875 L 38.5 53.5 L 0.234375 53.5 Z M 0.234375 0.1875 " clip-rule="nonzero"/></clipPath><clipPath id="02d0fc107a"><rect x="0" width="39" y="0" height="54"/></clipPath><clipPath id="d9b97e711a"><path d="M 37.503906 299.230469 L 147.832031 299.230469 L 147.832031 337.496094 L 37.503906 337.496094 Z M 37.503906 299.230469 " clip-rule="nonzero"/></clipPath><clipPath id="5286d83a61"><path d="M 0.503906 0.230469 L 110.832031 0.230469 L 110.832031 38.496094 L 0.503906 38.496094 Z M 0.503906 0.230469 " clip-rule="nonzero"/></clipPath><clipPath id="ea47d712cb"><rect x="0" width="111" y="0" height="39"/></clipPath><clipPath id="1ceaa9ccb7"><path d="M 37 229 L 148 229 L 148 330 L 37 330 Z M 37 229 " clip-rule="nonzero"/></clipPath><clipPath id="e0bbaf3316"><path d="M 37.503906 259.097656 L 61.679688 229.4375 L 147.832031 299.667969 L 123.65625 329.324219 Z M 37.503906 259.097656 " clip-rule="nonzero"/></clipPath><clipPath id="a95990f408"><path d="M 0.441406 0.199219 L 110.839844 0.199219 L 110.839844 100.519531 L 0.441406 100.519531 Z M 0.441406 0.199219 " clip-rule="nonzero"/></clipPath><clipPath id="3bde5d89e8"><path d="M 0.503906 30.097656 L 24.679688 0.4375 L 110.832031 70.667969 L 86.65625 100.324219 Z M 0.503906 30.097656 " clip-rule="nonzero"/></clipPath><clipPath id="fea84a7d16"><rect x="0" width="111" y="0" height="101"/></clipPath><clipPath id="13fae9fe07"><path d="M 37 147 L 159 147 L 159 283 L 37 283 Z M 37 147 " clip-rule="nonzero"/></clipPath><clipPath id="45e6ea343a"><path d="M 129.457031 147.828125 L 158.875 172.300781 L 66.914062 282.847656 L 37.496094 258.378906 Z M 129.457031 147.828125 " clip-rule="nonzero"/></clipPath><clipPath id="64638f35c5"><path d="M 0.441406 0.601562 L 121.878906 0.601562 L 121.878906 135.960938 L 0.441406 135.960938 Z M 0.441406 0.601562 " clip-rule="nonzero"/></clipPath><clipPath id="55dc926adf"><path d="M 92.457031 0.828125 L 121.875 25.300781 L 29.914062 135.847656 L 0.496094 111.378906 Z M 92.457031 0.828125 " clip-rule="nonzero"/></clipPath><clipPath id="3989ecef47"><rect x="0" width="122" y="0" height="136"/></clipPath><clipPath id="8f8f78dbf8"><path d="M 244.445312 74.097656 L 282.707031 74.097656 L 282.707031 241.824219 L 244.445312 241.824219 Z M 244.445312 74.097656 " clip-rule="nonzero"/></clipPath><clipPath id="c6171a7318"><path d="M 0.445312 0.0976562 L 38.707031 0.0976562 L 38.707031 167.824219 L 0.445312 167.824219 Z M 0.445312 0.0976562 " clip-rule="nonzero"/></clipPath><clipPath id="6634c23fa4"><rect x="0" width="39" y="0" height="168"/></clipPath><clipPath id="638b7bff29"><path d="M 214 37 L 338 37 L 338 148 L 214 148 Z M 214 37 " clip-rule="nonzero"/></clipPath><clipPath id="14bc9d89c1"><path d="M 214.359375 67.15625 L 238.539062 37.5 L 337.5 118.171875 L 313.324219 147.828125 Z M 214.359375 67.15625 " clip-rule="nonzero"/></clipPath><clipPath id="446b1f6c0b"><path d="M 0.320312 0.441406 L 123.679688 0.441406 L 123.679688 110.839844 L 0.320312 110.839844 Z M 0.320312 0.441406 " clip-rule="nonzero"/></clipPath><clipPath id="3e465e7e81"><path d="M 0.359375 30.15625 L 24.539062 0.5 L 123.5 81.171875 L 99.324219 110.828125 Z M 0.359375 30.15625 " clip-rule="nonzero"/></clipPath><clipPath id="f16feb2dd7"><rect x="0" width="124" y="0" height="111"/></clipPath></defs><g clip-path="url(#b806a0415a)"><g clip-path="url(#43fad76264)"><g transform="matrix(1, 0, 0, 1, 37, 60)"><g clip-path="url(#e3495cb41d)"><g clip-path="url(#9002443be2)"><g clip-path="url(#38efdc8c29)"><path fill="#ffffff" d="M 0.5 29.90625 L 24.675781 0.25 L 300.523438 225.109375 L 276.347656 254.769531 Z M 0.5 29.90625 " fill-opacity="1" fill-rule="nonzero"/></g></g></g></g></g></g><g clip-path="url(#8c205a5851)"><g transform="matrix(1, 0, 0, 1, 37, 37)"><g clip-path="url(#bb6593a64c)"><g clip-path="url(#5b796e2373)"><path fill="#ffffff" d="M 0.5 0.5 L 38.765625 0.5 L 38.765625 53.859375 L 0.5 53.859375 Z M 0.5 0.5 " fill-opacity="1" fill-rule="nonzero"/></g></g></g></g><g clip-path="url(#db82434faa)"><g transform="matrix(1, 0, 0, 1, 299, 284)"><g clip-path="url(#02d0fc107a)"><g clip-path="url(#2971ad2b14)"><path fill="#ffffff" d="M 0.234375 0.1875 L 38.5 0.1875 L 38.5 53.546875 L 0.234375 53.546875 Z M 0.234375 0.1875 " fill-opacity="1" fill-rule="nonzero"/></g></g></g></g><g clip-path="url(#d9b97e711a)"><g transform="matrix(1, 0, 0, 1, 37, 299)"><g clip-path="url(#ea47d712cb)"><g clip-path="url(#5286d83a61)"><path fill="#ffffff" d="M 0.503906 38.496094 L 0.503906 0.230469 L 110.8125 0.230469 L 110.8125 38.496094 Z M 0.503906 38.496094 " fill-opacity="1" fill-rule="nonzero"/></g></g></g></g><g clip-path="url(#1ceaa9ccb7)"><g clip-path="url(#e0bbaf3316)"><g transform="matrix(1, 0, 0, 1, 37, 229)"><g clip-path="url(#fea84a7d16)"><g clip-path="url(#a95990f408)"><g clip-path="url(#3bde5d89e8)"><path fill="#ffffff" d="M 0.503906 30.097656 L 24.679688 0.4375 L 110.875 70.699219 L 86.699219 100.359375 Z M 0.503906 30.097656 " fill-opacity="1" fill-rule="nonzero"/></g></g></g></g></g></g><g clip-path="url(#13fae9fe07)"><g clip-path="url(#45e6ea343a)"><g transform="matrix(1, 0, 0, 1, 37, 147)"><g clip-path="url(#3989ecef47)"><g clip-path="url(#64638f35c5)"><g clip-path="url(#55dc926adf)"><path fill="#ffffff" d="M 92.457031 0.828125 L 121.875 25.300781 L 29.917969 135.839844 L 0.503906 111.371094 Z M 92.457031 0.828125 " fill-opacity="1" fill-rule="nonzero"/></g></g></g></g></g></g><g clip-path="url(#8f8f78dbf8)"><g transform="matrix(1, 0, 0, 1, 244, 74)"><g clip-path="url(#6634c23fa4)"><g clip-path="url(#c6171a7318)"><path fill="#ffffff" d="M 0.445312 0.0976562 L 38.707031 0.0976562 L 38.707031 167.800781 L 0.445312 167.800781 Z M 0.445312 0.0976562 " fill-opacity="1" fill-rule="nonzero"/></g></g></g></g><g clip-path="url(#638b7bff29)"><g clip-path="url(#14bc9d89c1)"><g transform="matrix(1, 0, 0, 1, 214, 37)"><g clip-path="url(#f16feb2dd7)"><g clip-path="url(#446b1f6c0b)"><g clip-path="url(#3e465e7e81)"><path fill="#ffffff" d="M 0.359375 30.15625 L 24.539062 0.5 L 123.476562 81.152344 L 99.300781 110.808594 Z M 0.359375 30.15625 " fill-opacity="1" fill-rule="nonzero"/></g></g></g></g></g></g></svg>