<svg xmlns="http://www.w3.org/2000/svg" xmlns:xlink="http://www.w3.org/1999/xlink" width="500" zoomAndPan="magnify" viewBox="0 0 375 374.999991" height="500" preserveAspectRatio="xMidYMid meet" version="1.0"><defs><clipPath id="bc84eaef47"><path d="M 37.5 299.234375 L 337.5 299.234375 L 337.5 337.5 L 37.5 337.5 Z M 37.5 299.234375 " clip-rule="nonzero"/></clipPath><clipPath id="45bd27a078"><path d="M 0.5 0.234375 L 300.5 0.234375 L 300.5 38.5 L 0.5 38.5 Z M 0.5 0.234375 " clip-rule="nonzero"/></clipPath><clipPath id="8a14b8c804"><rect x="0" width="301" y="0" height="39"/></clipPath><clipPath id="e37740aea9"><path d="M 37.5 37.5 L 337.5 37.5 L 337.5 75.761719 L 37.5 75.761719 Z M 37.5 37.5 " clip-rule="nonzero"/></clipPath><clipPath id="9c4e640fd4"><path d="M 0.5 0.5 L 300.5 0.5 L 300.5 38.761719 L 0.5 38.761719 Z M 0.5 0.5 " clip-rule="nonzero"/></clipPath><clipPath id="e322c250a2"><rect x="0" width="301" y="0" height="39"/></clipPath><clipPath id="46d2c392aa"><path d="M 37.5 168.367188 L 337.5 168.367188 L 337.5 206.628906 L 37.5 206.628906 Z M 37.5 168.367188 " clip-rule="nonzero"/></clipPath><clipPath id="fa24a32368"><path d="M 0.5 0.367188 L 300.5 0.367188 L 300.5 38.628906 L 0.5 38.628906 Z M 0.5 0.367188 " clip-rule="nonzero"/></clipPath><clipPath id="a7d6d02feb"><rect x="0" width="301" y="0" height="39"/></clipPath></defs><g clip-path="url(#bc84eaef47)"><g transform="matrix(1, 0, 0, 1, 37, 299)"><g clip-path="url(#8a14b8c804)"><g clip-path="url(#45bd27a078)"><path fill="#ffffff" d="M 0.5 38.5 L 0.5 0.234375 L 300.484375 0.234375 L 300.484375 38.5 Z M 0.5 38.5 " fill-opacity="1" fill-rule="nonzero"/></g></g></g></g><g clip-path="url(#e37740aea9)"><g transform="matrix(1, 0, 0, 1, 37, 37)"><g clip-path="url(#e322c250a2)"><g clip-path="url(#9c4e640fd4)"><path fill="#ffffff" d="M 0.5 38.761719 L 0.5 0.5 L 300.484375 0.5 L 300.484375 38.761719 Z M 0.5 38.761719 " fill-opacity="1" fill-rule="nonzero"/></g></g></g></g><g clip-path="url(#46d2c392aa)"><g transform="matrix(1, 0, 0, 1, 37, 168)"><g clip-path="url(#a7d6d02feb)"><g clip-path="url(#fa24a32368)"><path fill="#ffffff" d="M 0.5 38.628906 L 0.5 0.367188 L 300.484375 0.367188 L 300.484375 38.628906 Z M 0.5 38.628906 " fill-opacity="1" fill-rule="nonzero"/></g></g></g></g></svg>